<?xml version="1.0" standalone="no"?>
<!DOCTYPE svg PUBLIC "-//W3C//DTD SVG 20010904//EN"
 "http://www.w3.org/TR/2001/REC-SVG-20010904/DTD/svg10.dtd">
<svg version="1.0" xmlns="http://www.w3.org/2000/svg"
 width="200.000000pt" height="200.000000pt" viewBox="0 0 200.000000 200.000000"
 preserveAspectRatio="xMidYMid meet">

<g transform="translate(0.000000,200.000000) scale(0.100000,-0.100000)"
fill="#000000" stroke="none">
<path d="M920 1994 c-358 -41 -645 -231 -802 -531 -259 -495 -62 -1107 437
-1353 288 -142 602 -142 890 0 307 151 511 449 546 794 52 512 -292 971 -806
1074 -59 12 -216 22 -265 16z m-80 -604 l0 -210 50 0 50 0 0 -161 0 -160 53 3
52 3 3 158 3 157 49 0 50 0 0 210 0 210 155 0 155 0 0 -210 0 -210 -50 0 -50
0 0 -155 0 -155 -50 0 -50 0 0 -105 0 -105 -50 0 -50 0 0 -55 0 -55 -160 0
-160 0 0 55 0 55 -55 0 -55 0 0 105 0 105 -44 0 -43 0 -6 68 c-4 37 -7 104 -7
150 l0 82 -49 0 -48 0 -6 83 c-4 45 -7 142 -7 215 l0 132 160 0 160 0 0 -210z"/>
</g>
</svg>
